<svg xmlns="http://www.w3.org/2000/svg" viewBox="0 0 512 512">
  <defs>
    <linearGradient id="bg" x1="0" y1="0" x2="0" y2="1">
      <stop offset="0" stop-color="#0a3a2e"/>
      <stop offset="1" stop-color="#04241c"/>
    </linearGradient>
  </defs>
  <rect width="512" height="512" rx="96" fill="url(#bg)"/>
  <g fill="#d4af5a" transform="translate(96 72) scale(5)">
    <path d="M32 4c1 5-6 8-6 13 0 3.3 2.7 6 6 6s6-2.7 6-6c0-5-7-8-6-13z"/>
    <path d="M32 25c-8 0-13 6-13 12v3h26v-3c0-6-5-12-13-12z"/>
    <rect x="10" y="42" width="44" height="4" rx="1.5"/>
    <path d="M12 48v12h8v-7c0-2 1.6-3.5 3.5-3.5S27 51 27 53v7h10v-7c0-2 1.6-3.5 3.5-3.5S44 51 44 53v7h8V48H12z"/>
    <rect x="4" y="30" width="4" height="26" rx="1.5"/>
    <circle cx="6" cy="27" r="2.4"/>
    <rect x="56" y="30" width="4" height="26" rx="1.5"/>
    <circle cx="58" cy="27" r="2.4"/>
  </g>
  <text x="256" y="452" font-family="Arial, sans-serif" font-size="52" font-weight="bold" fill="#f5f1e6" text-anchor="middle">مواقيت الصلاة</text>
</svg>
